<svg width="80px" height="38px" viewBox="0 0 80 38" version="1.1" xmlns="http://www.w3.org/2000/svg" xmlns:xlink="http://www.w3.org/1999/xlink">
  <desc>Matthew Kitt</desc>
  <g stroke="none" stroke-width="1" fill="#111111" fill-rule="evenodd" transform="translate(-14.000000, -31.000000)">
    <g transform="translate(14.000000, 31.000000)">
      <path d="M35.9056,-0.000177777778 L17.9900444,14.1953778 L-0.000177777778,-0.000177777778 L-0.000177777778,11.1589333 L17.9900444,25.4291556 L27.0238222,18.3704889 L27.0238222,37.8033778 L35.9056,37.8033778 L35.9056,-0.000177777778 Z M-0.000177777778,37.8033778 L9.03271111,37.8033778 L9.03271111,21.8620444 L-0.000177777778,14.7269333 L-0.000177777778,37.8033778 Z"></path>
      <path d="M60.4184,1.29022222 L54.7250667,9.64044444 L60.2664,17.0786667 L71.3490667,1.29022222 L60.4184,1.29022222 Z M39.2388444,1.29022222 L39.2388444,37.8031111 L48.0441778,37.8031111 L48.0441778,20.1106667 L60.7970667,37.8031111 L71.6521778,37.8031111 L53.1304,11.8422222 L48.0441778,19.0493333 L48.0441778,1.29022222 L39.2388444,1.29022222 Z"></path>
      <path d="M77.5,38 C76.119338,38 75,36.880662 75,35.5 C75,34.119338 76.119338,33 77.5,33 C78.880662,33 80,34.119338 80,35.5 C80,36.880662 78.880662,38 77.5,38 Z"></path>
    </g>
  </g>
</svg>
