<svg width="80px" height="40px" viewBox="0 0 80 40" version="1.1" xmlns="http://www.w3.org/2000/svg" xmlns:xlink="http://www.w3.org/1999/xlink">
  <title>MK</title>
  <g stroke="none" stroke-width="1" fill="#111111" fill-rule="evenodd">
    <path d="M77.5,40 C76.119338,40 75,38.880662 75,37.5 C75,36.119338 76.119338,35 77.5,35 C78.880662,35 80,36.119338 80,37.5 C80,38.880662 78.880662,40 77.5,40 Z"></path>
    <path d="M40,1 L49,1 L49,20.9960318 L54,13 L72,40 L61,40 L49,22.0715242 L49,40 L40,40 L40,1 Z M61,19.5 L55,10.4960318 L60,1 L71,1 L61,19.5 Z"></path>
    <path d="M0,40 L9,40 L9,22 L0,15 L0,40 Z M36,0 L18,14 L0,0 L0,11 L18,25 L27,18 L27,40 L36,40 L36,0 Z"></path>
  </g>
</svg>
